<?xml version="1.0" encoding="utf-8"?>
<!-- Generator: Adobe Illustrator 21.1.0, SVG Export Plug-In . SVG Version: 6.00 Build 0)  -->
<svg version="1.1" id="Layer_1" xmlns="http://www.w3.org/2000/svg" xmlns:xlink="http://www.w3.org/1999/xlink" x="0px" y="0px"
	 width="224px" height="321.5px" viewBox="0 0 224 321.5" style="enable-background:new 0 0 224 321.5;" xml:space="preserve">
<style type="text/css">
	.st0{fill:url(#SVGID_1_);}
	.st1{fill:url(#SVGID_2_);}
	.st2{fill:url(#SVGID_3_);}
	.st3{fill:url(#SVGID_4_);}
</style>
<g>
	<linearGradient id="SVGID_1_" gradientUnits="userSpaceOnUse" x1="102.827" y1="168.5891" x2="218.9194" y2="190.1703">
		<stop  offset="0" style="stop-color:#9700B1"/>
		<stop  offset="0.1062" style="stop-color:#A508AC"/>
		<stop  offset="0.3083" style="stop-color:#CB1DA0"/>
		<stop  offset="0.5155" style="stop-color:#F83692"/>
		<stop  offset="0.5717" style="stop-color:#F95484"/>
		<stop  offset="0.6767" style="stop-color:#FB876C"/>
		<stop  offset="0.7756" style="stop-color:#FDAF59"/>
		<stop  offset="0.8654" style="stop-color:#FECC4B"/>
		<stop  offset="0.9432" style="stop-color:#FFDE43"/>
		<stop  offset="1" style="stop-color:#FFE440"/>
	</linearGradient>
	<path class="st0" d="M224,209.5c0,19.4-5,37.7-13.7,53.6c-4.9-25.9-17.2-49.3-34.7-67.7c-11.3-11.9-24.7-21.8-39.6-29
		c-0.1,0-0.1-0.1-0.1-0.1c-2.6-1.4-5.2-2.6-8-3.6c0,0-0.1,0-0.1,0c-4.9-1.7-10.2-2.6-15.7-2.6c-14.8,0-28,6.5-37,16.8L94,154
		l44.3-53.4c14.6,3.5,28.1,9.9,39.9,18.5C206,139.6,224,172.4,224,209.5z"/>
	<linearGradient id="SVGID_2_" gradientUnits="userSpaceOnUse" x1="134.4659" y1="169.0046" x2="117.4591" y2="304.3788">
		<stop  offset="0" style="stop-color:#521796"/>
		<stop  offset="0.1278" style="stop-color:#601A94"/>
		<stop  offset="0.3712" style="stop-color:#86238D"/>
		<stop  offset="0.7016" style="stop-color:#C33283"/>
		<stop  offset="1" style="stop-color:#FF4079"/>
	</linearGradient>
	<path class="st1" d="M210.3,263.1c-6.9,12.7-16.3,23.9-27.4,33c-19.3,15.8-44,25.3-70.9,25.3c-31.4,0-59.8-12.9-80.1-33.8
		c4.9,0.6,9.9,0.8,15,0.8c22.2,0,43.2-5.3,61.7-14.8c15.2-7.8,28.8-18.3,40-31c0.6-0.7,1.3-1.4,1.8-2.1c6.9-8.5,11-19.3,11-31.1
		c0-18.5-10.2-34.7-25.3-43.1c14.9,7.2,28.3,17.1,39.6,29C193.1,213.9,205.4,237.2,210.3,263.1z"/>
	<linearGradient id="SVGID_3_" gradientUnits="userSpaceOnUse" x1="97.9397" y1="270.049" x2="30.5927" y2="144.1986">
		<stop  offset="0" style="stop-color:#291BC0"/>
		<stop  offset="0.1049" style="stop-color:#2929C4"/>
		<stop  offset="0.3047" style="stop-color:#2A4FCF"/>
		<stop  offset="0.5786" style="stop-color:#2B8CE0"/>
		<stop  offset="0.9127" style="stop-color:#2CE0F8"/>
		<stop  offset="1" style="stop-color:#2CF7FF"/>
	</linearGradient>
	<path class="st2" d="M148.5,242.7c-11.2,12.7-24.7,23.3-40,31c-18.5,9.5-39.5,14.8-61.7,14.8c-5.1,0-10.1-0.3-15-0.8
		C12.1,267.5,0,239.9,0,209.5c0-2.3,0.1-4.7,0.2-7c0.6-10.3,2.6-20.1,5.9-29.5c4-11.7,9.9-22.4,17.3-32l5-6.1l47.3-57
		c-8,10.3-14.4,21.8-19.2,34.2c-5.3,13.8-8.4,28.6-8.8,44c-0.1,2.3-0.1,4.6-0.1,6.9c0.2,13.6,2.5,26.7,6.5,39
		c3.6,11.4,8.7,22.1,15.1,31.9c0,0,0,0.1,0.1,0.1c1.3,2.3,2.8,4.5,4.5,6.5c9,11.1,22.8,18.2,38.3,18.2
		C126.5,258.8,139.5,252.6,148.5,242.7z"/>
	<linearGradient id="SVGID_4_" gradientUnits="userSpaceOnUse" x1="96.9895" y1="178.8699" x2="137.8058" y2="11.5229">
		<stop  offset="0" style="stop-color:#00E47D"/>
		<stop  offset="0.1693" style="stop-color:#00D68B"/>
		<stop  offset="0.4916" style="stop-color:#00B0B0"/>
		<stop  offset="0.9301" style="stop-color:#0073EB"/>
		<stop  offset="1" style="stop-color:#0069F5"/>
	</linearGradient>
	<path class="st3" d="M188.7,40l-30,36.2l-20.3,24.4L94,154L75,177l-1.9,2.3c-6.5,8.4-10.4,18.8-10.4,30.2c0,8.9,2.4,17.3,6.5,24.5
		c-6.3-9.8-11.4-20.5-15.1-31.9c-4-12.3-6.2-25.4-6.5-39c0-2.3,0-4.6,0.1-6.9c0.5-15.5,3.6-30.3,8.8-44C61.3,99.8,67.8,88.3,75.7,78
		l6.5-7.9l29.9-36L140.4,0l30.7,25.5L188.7,40z"/>
</g>
</svg>
